<svg width="50" height="50" viewBox="0 0 50 50" fill="none" xmlns="http://www.w3.org/2000/svg">
<path d="M48.52 11.37L45.17 14.73C43.8572 16.0428 42.0766 16.7804 40.22 16.7804C38.3634 16.7804 36.5828 16.0428 35.27 14.73C33.9572 13.4172 33.2196 11.6366 33.2196 9.78C33.2196 7.92339 33.9572 6.14282 35.27 4.83L38.63 1.47C37.4447 1.16073 36.225 1.00281 35 1C32.7571 0.999599 30.5469 1.5381 28.5555 2.57017C26.5641 3.60224 24.8499 5.09766 23.5571 6.93052C22.2643 8.76338 21.4307 10.88 21.1267 13.1023C20.8227 15.3245 21.057 17.5872 21.81 19.7L3.33999 35.34C1.83887 36.8411 0.995544 38.8771 0.995544 41C0.995544 42.0512 1.20259 43.092 1.60485 44.0632C2.00711 45.0343 2.59671 45.9167 3.33999 46.66C4.08328 47.4033 4.96568 47.9929 5.93682 48.3951C6.90797 48.7974 7.94883 49.0044 8.99999 49.0044C11.1229 49.0044 13.1589 48.1611 14.66 46.66L30.3 28.19C32.7057 29.0473 35.3001 29.2302 37.8024 28.7188C40.3046 28.2075 42.6192 27.0215 44.4958 25.2891C46.3723 23.5567 47.7393 21.3441 48.4486 18.8906C49.1579 16.4372 49.1826 13.8365 48.52 11.37V11.37Z" stroke="black"/>
</svg>
