<svg width="108" height="26" viewBox="0 0 108 26" fill="none" xmlns="http://www.w3.org/2000/svg">
<path d="M10.2502 25.4231C8.5685 25.4491 6.89994 25.1231 5.35164 24.4662C3.94773 23.8638 2.71749 22.9186 1.77372 21.7172C0.818293 20.4753 0.206562 19.0038 0 17.4505L4.81729 16.7374C5.15727 18.1407 5.85891 19.2209 6.92219 19.978C7.98003 20.735 9.25229 21.1337 10.5529 21.1158C11.3023 21.1168 12.0468 20.996 12.7574 20.7582C13.419 20.5539 14.0222 20.1944 14.5169 19.7099C14.7418 19.4855 14.9188 19.2179 15.0372 18.9231C15.1556 18.6283 15.2129 18.3126 15.2057 17.9951C15.2089 17.7502 15.1746 17.5063 15.1041 17.2717C15.0265 17.0327 14.903 16.8112 14.7404 16.6196C14.5308 16.3901 14.2834 16.1984 14.009 16.0527C13.6357 15.8454 13.2404 15.6805 12.8305 15.561L6.48536 13.6837C5.92464 13.5195 5.37264 13.327 4.83151 13.1066C4.1726 12.8426 3.5564 12.4824 3.00293 12.0379C2.38551 11.5387 1.88482 10.9104 1.53601 10.1972C1.14862 9.43594 0.954925 8.4756 0.954925 7.31614C0.954925 5.67584 1.36737 4.31253 2.19226 3.22622C3.0425 2.11797 4.18936 1.27332 5.49996 0.790143C6.96425 0.242519 8.51846 -0.0249003 10.0816 0.00182207C11.628 -0.000452454 13.1603 0.296207 14.5941 0.875477C15.8803 1.40365 17.0209 2.2328 17.9201 3.29327C18.8491 4.42291 19.5104 5.74824 19.8543 7.16986L14.8664 8.0171C14.7096 7.27514 14.3647 6.58597 13.8647 6.01582C13.3852 5.4781 12.7907 5.0552 12.1255 4.77848C11.4594 4.49749 10.7472 4.34182 10.0247 4.3193C9.33032 4.29285 8.63696 4.39338 7.9787 4.61594C7.38961 4.80674 6.85463 5.13553 6.41832 5.57493C6.22234 5.77067 6.06746 6.00361 5.96279 6.26006C5.85812 6.51651 5.80576 6.7913 5.80879 7.06827C5.799 7.30664 5.83751 7.54453 5.92201 7.76764C6.0065 7.99075 6.13524 8.19447 6.30047 8.36656C6.65266 8.71965 7.07388 8.99632 7.53781 9.17926C8.03537 9.38259 8.54576 9.55295 9.06569 9.68923L13.306 10.8433C13.9399 11.0126 14.6415 11.2354 15.4109 11.5117C16.1957 11.798 16.9396 12.186 17.6234 12.6658C18.3433 13.1716 18.9404 13.8326 19.3708 14.6C19.8286 15.4046 20.0575 16.4204 20.0575 17.6476C20.0888 18.8439 19.8087 20.0278 19.2448 21.0833C18.7046 22.0527 17.9465 22.8832 17.0302 23.5092C16.0708 24.1638 15.0063 24.6489 13.883 24.9437C12.6986 25.2634 11.477 25.4246 10.2502 25.4231Z" fill="#141414"/>
<path d="M28.0301 25.4231C26.7176 25.4231 25.6062 25.1719 24.696 24.6694C23.8255 24.2085 23.1055 23.5076 22.6216 22.6498C22.1479 21.7971 21.9049 20.8355 21.9165 19.8602C21.9068 19.0683 22.0389 18.2811 22.3066 17.5359C22.5736 16.8242 23.0069 16.1868 23.5704 15.6768C24.2586 15.0788 25.0572 14.6211 25.9211 14.3297C26.7123 14.0495 27.5232 13.8281 28.3471 13.6674C29.2857 13.4751 30.349 13.2915 31.5369 13.1168L35.4541 12.5316L33.7962 13.4459C33.7962 12.3623 33.5362 11.5652 33.016 11.0546C32.4959 10.5439 31.625 10.2893 30.4032 10.2906C29.6694 10.3035 28.9466 10.471 28.282 10.7823C27.9156 10.9481 27.5885 11.1898 27.3223 11.4914C27.0562 11.7929 26.857 12.1475 26.7379 12.5316L22.5647 11.2069C23.0101 9.7251 23.9285 8.42988 25.1795 7.5193C26.4568 6.57115 28.1987 6.09707 30.4052 6.09707C31.8759 6.07077 33.3382 6.3238 34.7146 6.84273C35.9475 7.32312 36.9602 8.24104 37.559 9.42103C37.9052 10.0494 38.124 10.7398 38.2031 11.4528C38.2708 12.13 38.3047 12.8879 38.3047 13.7263V24.9233H34.2737V21.1483L34.8507 21.9285C33.9567 23.1584 32.9957 24.0497 31.9676 24.6023C30.9396 25.1549 29.6271 25.4285 28.0301 25.4231ZM29.0135 21.7944C29.7537 21.8143 30.4879 21.6568 31.1549 21.3352C31.6765 21.0803 32.1474 20.7326 32.5447 20.3092C32.8223 20.0202 33.0595 19.6948 33.2497 19.3421C33.4968 18.7942 33.6348 18.2035 33.656 17.6029C33.6967 16.9426 33.717 16.3839 33.717 15.9491L35.0742 16.2884C33.7143 16.5213 32.611 16.7137 31.7645 16.8654C30.9179 17.0171 30.2339 17.1525 29.7124 17.2717C29.2465 17.3807 28.7872 17.5164 28.3369 17.6781C27.9485 17.8245 27.581 18.0213 27.2438 18.2632C26.9921 18.444 26.7839 18.6786 26.6343 18.95C26.4997 19.2062 26.4299 19.4915 26.4311 19.7809C26.421 20.1646 26.5312 20.5418 26.746 20.8598C26.9698 21.1702 27.279 21.4088 27.6359 21.5465C28.0745 21.7186 28.5425 21.8028 29.0135 21.7944Z" fill="#141414"/>
<path d="M41.8399 24.9152V0.485352H46.4886V12.361H45.9116V24.9152H41.8399ZM50.865 25.4231C49.0445 25.4231 47.5234 24.9992 46.3017 24.1512C45.0685 23.2901 44.111 22.0906 43.5446 20.6973C42.9081 19.1303 42.5937 17.4512 42.6201 15.7601C42.5929 14.0697 42.9045 12.391 43.5365 10.8229C44.09 9.43956 45.025 8.24179 46.2326 7.36894C47.4218 6.51967 48.8867 6.09571 50.6273 6.09706C52.3678 6.09842 53.895 6.51628 55.2089 7.35065C56.5133 8.19036 57.5608 9.37356 58.2362 10.7701C58.9768 12.324 59.3454 14.0289 59.313 15.7499C59.3405 17.4548 58.9784 19.1434 58.2545 20.6871C57.5973 22.0849 56.5736 23.2786 55.2922 24.1411C53.9798 25.0074 52.4352 25.4545 50.863 25.4231H50.865ZM50.1193 21.319C51.1135 21.319 51.9262 21.0697 52.5574 20.5713C53.2093 20.0499 53.6979 19.3525 53.9655 18.5619C54.2801 17.6597 54.4348 16.7094 54.4226 15.754C54.4337 14.8026 54.2733 13.8569 53.9492 12.9624C53.6651 12.1641 53.1581 11.4639 52.4884 10.9448C51.8287 10.441 50.9835 10.189 49.9527 10.189C48.9924 10.189 48.2149 10.4213 47.6203 10.8859C46.9997 11.3894 46.5469 12.0696 46.322 12.8364C46.0358 13.7819 45.8987 14.7663 45.9156 15.754C45.8986 16.7417 46.0357 17.7261 46.322 18.6716C46.5511 19.4458 47.0173 20.1287 47.6548 20.6241C48.2684 21.0874 49.0899 21.319 50.1193 21.319Z" fill="#141414"/>
<path d="M59.8229 24.9151V24.3381L68.8135 10.5974H60.8408V6.59277H75.9388V7.16979L66.9828 20.9106H75.5995V24.9151H59.8229Z" fill="#141414"/>
<path d="M85.984 25.4234C84.1053 25.4234 82.4507 25.0171 81.0204 24.2044C79.6151 23.42 78.4531 22.2636 77.6619 20.8621C76.8334 19.3724 76.4129 17.6903 76.4428 15.9859C76.4428 13.984 76.8384 12.2421 77.6294 10.7603C78.3768 9.32539 79.5114 8.12879 80.9046 7.30627C82.3636 6.46826 84.0233 6.04333 85.7056 6.07706C87.6277 6.07706 89.2619 6.52946 90.6082 7.43427C91.9751 8.36598 93.0187 9.6993 93.5949 11.2499C94.2383 12.8889 94.4645 14.8177 94.2735 17.0363H89.7143V15.348C89.7143 13.4815 89.4176 12.1385 88.8244 11.319C88.2311 10.4995 87.2613 10.0891 85.9149 10.0877C84.3423 10.0877 83.1862 10.5659 82.4467 11.5222C81.7071 12.4784 81.338 13.8892 81.3394 15.7543C81.3394 17.4623 81.7098 18.783 82.4507 19.7162C83.1917 20.6495 84.28 21.1161 85.7158 21.1161C86.5322 21.1407 87.339 20.9351 88.0442 20.5228C88.6988 20.1155 89.2135 19.5179 89.5192 18.8101L94.1333 20.1327C93.4909 21.7497 92.3464 23.1178 90.8683 24.0357C89.4061 24.9552 87.7112 25.4367 85.984 25.4234ZM79.9171 17.0445V13.6149H92.065V17.0424L79.9171 17.0445Z" fill="#141414"/>
<path d="M97.248 24.9155V6.5931H101.311V11.063L100.871 10.488C101.099 9.86717 101.419 9.28378 101.819 8.75692C102.218 8.23793 102.715 7.80235 103.282 7.47488C103.733 7.19987 104.218 6.98601 104.725 6.83894C105.25 6.68609 105.79 6.58938 106.336 6.55043C106.891 6.51184 107.448 6.52612 108 6.5931V10.9025C107.424 10.7379 106.822 10.6835 106.226 10.7419C105.593 10.7815 104.973 10.9393 104.398 11.2072C103.881 11.4401 103.416 11.7753 103.032 12.1926C102.652 12.6153 102.364 13.1119 102.185 13.6514C101.985 14.2615 101.887 14.9008 101.897 15.543V24.9073L97.248 24.9155Z" fill="#141414"/>
</svg>
