<svg width="143" height="71" viewBox="0 0 143 71" fill="none" xmlns="http://www.w3.org/2000/svg">
<g opacity="0.07">
<path d="M71.5 71C62.1105 71 52.8129 69.1635 44.1381 65.5955C35.4634 62.0274 27.5813 56.7975 20.9419 50.2046C14.3025 43.6116 9.03582 35.7846 5.44261 27.1705C1.8494 18.5564 0 9.32385 0 0H2.2C2.2 9.03697 3.9925 17.9854 7.47515 26.3345C10.9578 34.6836 16.0624 42.2697 22.4975 48.6598C28.9326 55.0499 36.5722 60.1188 44.98 63.5771C53.3879 67.0354 62.3994 68.8154 71.5 68.8154C80.6006 68.8154 89.6121 67.0354 98.02 63.5771C106.428 60.1188 114.067 55.0499 120.502 48.6598C126.938 42.2697 132.042 34.6836 135.525 26.3345C139.008 17.9854 140.8 9.03698 140.8 8.33365e-06H143C143 9.32386 141.151 18.5564 137.557 27.1705C133.964 35.7846 128.698 43.6116 122.058 50.2046C115.419 56.7975 107.537 62.0274 98.8619 65.5955C90.1871 69.1635 80.8895 71 71.5 71Z" fill="url(#paint0_linear_2_233)"/>
<path d="M71.5 62.2615C54.8709 62.2615 38.9229 55.7019 27.1644 44.0256C15.4059 32.3493 8.8 16.5128 8.8 1.66673e-05H11C11 15.9334 17.3741 31.2142 28.72 42.4808C40.066 53.7474 55.4544 60.0769 71.5 60.0769C87.5456 60.0769 102.934 53.7474 114.28 42.4808C125.626 31.2142 132 15.9334 132 8.33365e-06H134.2C134.2 16.5128 127.594 32.3493 115.836 44.0256C104.077 55.7019 88.1291 62.2615 71.5 62.2615Z" fill="url(#paint1_linear_2_233)"/>
<path d="M33.387 37.8465C43.4952 47.8841 57.2048 53.5231 71.5 53.5231C85.7952 53.5231 99.5048 47.8841 109.613 37.8465C119.721 27.809 125.4 14.1952 125.4 8.33365e-06H123.2C123.2 13.6158 117.753 26.6739 108.057 36.3018C98.3618 45.9296 85.2117 51.3385 71.5 51.3385C57.7883 51.3385 44.6382 45.9296 34.9426 36.3018C25.247 26.674 19.8 13.6158 19.8 1.66673e-05H17.6C17.6 14.1952 23.2787 27.809 33.387 37.8465Z" fill="url(#paint2_linear_2_233)"/>
<path d="M71.5 44.7846C59.5387 44.7846 48.0674 40.0663 39.6095 31.6675C31.1516 23.2688 26.4 11.8776 26.4 1.66673e-05H28.6C28.6 11.2982 33.1198 22.1337 41.1651 30.1228C49.2104 38.1118 60.1222 42.6 71.5 42.6C82.8778 42.6 93.7896 38.1118 101.835 30.1228C109.88 22.1337 114.4 11.2982 114.4 8.33365e-06H116.6C116.6 11.8776 111.848 23.2688 103.391 31.6675C94.9326 40.0663 83.4613 44.7846 71.5 44.7846Z" fill="url(#paint3_linear_2_233)"/>
<path d="M45.832 25.4885C52.6396 32.2484 61.8726 36.0462 71.5 36.0462C81.1274 36.0462 90.3604 32.2484 97.168 25.4885C103.976 18.7285 107.8 9.56004 107.8 8.33365e-06H105.6C105.6 8.98064 102.007 17.5935 95.6123 23.9437C89.2174 30.294 80.5439 33.8615 71.5 33.8615C62.4561 33.8615 53.7826 30.294 47.3877 23.9437C40.9927 17.5935 37.4 8.98065 37.4 1.66673e-05H35.2C35.2 9.56005 39.0245 18.7285 45.832 25.4885Z" fill="url(#paint4_linear_2_233)"/>
<path d="M71.5 27.3077C64.2066 27.3077 57.2118 24.4306 52.0546 19.3095C46.8973 14.1883 44 7.24246 44 8.33365e-06H46.2C46.2 6.66307 48.8655 13.0532 53.6102 17.7647C58.3549 22.4762 64.79 25.1231 71.5 25.1231C78.21 25.1231 84.6451 22.4762 89.3898 17.7647C94.1345 13.0532 96.8 6.66306 96.8 8.33365e-06H99C99 7.24246 96.1027 14.1883 90.9454 19.3095C85.7882 24.4306 78.7935 27.3077 71.5 27.3077Z" fill="url(#paint5_linear_2_233)"/>
</g>
<defs>
<linearGradient id="paint0_linear_2_233" x1="71.5" y1="71" x2="71.5" y2="-3.27692" gradientUnits="userSpaceOnUse">
<stop stop-color="#555555"/>
<stop offset="1" stop-color="white" stop-opacity="0"/>
</linearGradient>
<linearGradient id="paint1_linear_2_233" x1="71.5" y1="71" x2="71.5" y2="-3.27692" gradientUnits="userSpaceOnUse">
<stop stop-color="#555555"/>
<stop offset="1" stop-color="white" stop-opacity="0"/>
</linearGradient>
<linearGradient id="paint2_linear_2_233" x1="71.5" y1="71" x2="71.5" y2="-3.27692" gradientUnits="userSpaceOnUse">
<stop stop-color="#555555"/>
<stop offset="1" stop-color="white" stop-opacity="0"/>
</linearGradient>
<linearGradient id="paint3_linear_2_233" x1="71.5" y1="71" x2="71.5" y2="-3.27692" gradientUnits="userSpaceOnUse">
<stop stop-color="#555555"/>
<stop offset="1" stop-color="white" stop-opacity="0"/>
</linearGradient>
<linearGradient id="paint4_linear_2_233" x1="71.5" y1="71" x2="71.5" y2="-3.27692" gradientUnits="userSpaceOnUse">
<stop stop-color="#555555"/>
<stop offset="1" stop-color="white" stop-opacity="0"/>
</linearGradient>
<linearGradient id="paint5_linear_2_233" x1="71.5" y1="71" x2="71.5" y2="-3.27692" gradientUnits="userSpaceOnUse">
<stop stop-color="#555555"/>
<stop offset="1" stop-color="white" stop-opacity="0"/>
</linearGradient>
</defs>
</svg>
