<svg width="559" height="405" viewBox="0 0 559 405" fill="none" xmlns="http://www.w3.org/2000/svg">
<g style="mix-blend-mode:luminosity" opacity="0.28">
<path fill-rule="evenodd" clip-rule="evenodd" d="M0.483673 349.921L14.0611 342.077L19.5593 382.981L0.483673 349.921ZM23.3107 336.734L37.0577 328.792L55.8883 361.427L23.3107 336.734ZM26.1355 351.957L45.0705 367.451L40.4314 370.131L33.6126 365.7L28.521 368.641L26.1355 351.957Z" fill="#CC2229"/>
<path d="M71.2783 308.536L107.85 287.421L128.524 323.231L91.9529 344.345L71.2783 308.536Z" fill="url(#paint0_linear_2_283)"/>
<path d="M95.1443 319.063L98.3859 317.191L93.136 311.841L95.1443 319.063ZM75.6638 309.742L93.1109 339.961L124.195 322.015L106.748 291.796L75.6638 309.742ZM104.144 323.056L100.599 319.656L96.2113 322.19L97.3838 326.959L94.3793 328.694L90.2708 311.809L89.3578 310.228L93.3902 307.9L107.465 321.139L104.144 323.056ZM112.13 318.446L108.888 320.317L101.851 308.128L105.092 306.256L112.13 318.446ZM102.647 305.718C101.719 306.254 100.537 305.945 100.008 305.028C99.4782 304.111 99.8012 302.933 100.729 302.397C101.657 301.861 102.839 302.171 103.368 303.088C103.898 304.005 103.575 305.182 102.647 305.718Z" fill="url(#paint1_linear_2_283)"/>
<path d="M143.724 268.023L180.295 246.908L201.057 282.87L164.486 303.984L143.724 268.023Z" fill="url(#paint2_linear_2_283)"/>
<path d="M148.283 269.203L179.038 251.447L196.498 281.689L165.744 299.445L148.283 269.203Z" fill="url(#paint3_linear_2_283)"/>
<path d="M158.415 273.059C158.415 273.059 160.692 271.662 162.596 270.562C164.52 269.451 166.152 269.111 167.532 269.374C168.846 269.617 170.179 270.555 171.02 272.013C171.861 273.471 172.099 274.925 171.765 276.237C171.325 277.934 170.455 279.292 168.39 280.603C167.819 280.965 167.281 281.284 167.281 281.284L170.017 286.024L166.926 287.809L158.415 273.059ZM165.766 278.657C166.121 278.496 166.322 278.359 166.816 278.065C168.463 277.088 168.904 275.489 168.024 273.964C167.234 272.595 165.742 271.958 164.117 272.819C163.469 273.162 162.827 273.564 162.827 273.564L165.766 278.657Z" fill="url(#paint4_linear_2_283)"/>
<path d="M176.105 278.107C176.949 278.129 178.749 277.852 179.751 277.273C180.774 276.682 180.989 276.077 180.664 275.515C180.34 274.952 179.664 274.553 178.149 274.858C175.459 275.392 174.062 274.977 173.345 273.682C172.15 271.61 172.989 269.054 175.683 267.498C176.951 266.765 178.204 266.595 179.066 266.547L180.5 269.033C179.854 269.045 178.093 269.258 177.158 269.798C176.334 270.274 176.062 270.882 176.386 271.444C176.685 271.962 177.264 271.987 178.872 271.689C181.358 271.213 182.836 271.769 183.793 273.378C184.975 275.426 184.336 277.968 181.14 279.682C180.043 280.271 178.604 280.534 177.521 280.561L176.105 278.107Z" fill="url(#paint5_linear_2_283)"/>
<path d="M218.184 227.474L251.708 208.119L270.535 240.729L237.011 260.084L218.184 227.474Z" fill="url(#paint6_radial_2_283)"/>
<path d="M218.184 227.475L251.708 208.12L270.535 240.729L237.011 260.084L218.184 227.475ZM236.367 262.488L272.938 241.373L252.352 205.716L215.78 226.831L236.367 262.488ZM245.856 229.479C245.75 229.296 245.495 228.854 244.926 228.045C244.856 227.923 244.868 227.875 244.933 227.777C245.643 226.859 247.466 224.913 249.934 223.488C250.056 223.417 250.135 223.413 250.205 223.534L251.472 225.729C251.542 225.851 251.514 225.907 251.377 225.987C250.39 226.495 249.044 227.435 248.642 227.972L254.194 237.587C254.264 237.709 254.254 237.796 254.116 237.875L251.724 239.257C251.602 239.327 251.515 239.317 251.436 239.179L245.84 229.488L245.856 229.479L245.856 229.479ZM240.28 245.864C240.097 245.969 240.008 245.92 239.92 245.767L230.462 229.386C230.392 229.264 230.394 229.162 230.531 229.083L232.938 227.693C233.06 227.622 233.117 227.65 233.196 227.787L241.343 241.898L247.621 238.273C247.743 238.203 247.815 238.222 247.864 238.377L248.732 240.761C248.772 240.9 248.731 241.005 248.609 241.076L240.289 245.879L240.28 245.864Z" fill="#AAD1EB"/>
<path d="M314.078 219.244C317.442 217.302 318.596 212.994 316.654 209.63L313.135 203.535L307.04 207.054C303.675 208.996 302.521 213.304 304.463 216.668C306.406 220.033 310.713 221.187 314.078 219.244Z" fill="#0ACF83"/>
<path d="M297.425 204.478C295.483 201.113 296.637 196.806 300.001 194.863L306.097 191.344L313.135 203.535L307.039 207.054C303.675 208.996 299.368 207.842 297.425 204.478Z" fill="#A259FF"/>
<path d="M290.387 192.287C288.445 188.923 289.599 184.616 292.963 182.673L299.058 179.154L306.097 191.344L300.001 194.863C296.637 196.806 292.33 195.652 290.387 192.287Z" fill="#F24E1E"/>
<path d="M299.058 179.154L305.154 175.635C308.518 173.692 312.825 174.847 314.768 178.211C316.71 181.576 315.556 185.883 312.192 187.825L306.097 191.344L299.058 179.154Z" fill="#FF7262"/>
<path d="M321.806 190.401C323.749 193.766 322.594 198.073 319.23 200.016C315.865 201.958 311.558 200.804 309.616 197.439C307.673 194.075 308.827 189.768 312.192 187.825C315.556 185.883 319.863 187.037 321.806 190.401Z" fill="#1ABCFE"/>
<path d="M370.552 182.13L348.608 150.898L380.859 132.277L396.925 166.88L385.821 178.174" fill="#E44D26"/>
<path d="M384.231 175.359L366.294 144.29L379.477 136.679L393.179 166.222" fill="#F16529"/>
<path d="M358.485 154.168L368.619 148.317L370.949 152.353L365.242 155.648L368.002 159.566L373.335 156.487L375.66 160.514L366.629 165.728L358.485 154.168ZM367.977 167.652L372.03 165.312L374.178 168.374L379.392 166.976L381.824 171.19L372.205 173.662" fill="#EBEBEB"/>
<path d="M378.717 142.487L368.601 148.328L370.931 152.363L380.674 146.738L378.717 142.487ZM382.696 151.082L373.317 156.497L375.647 160.533L380.626 157.659L383.183 163.175L379.374 166.986L381.796 171.182L388.739 164.116" fill="white"/>
<path d="M452.912 91.0876L468.975 125.694L457.883 136.979L442.603 140.926L420.665 109.705L452.912 91.0876Z" fill="#264DE4"/>
<path d="M465.25 125.051L451.523 95.4779L438.342 103.088L456.287 134.17L465.25 125.051Z" fill="#2965F1"/>
<path d="M435.994 120.72L438.687 124.548L447.721 119.332L445.39 115.295L435.994 120.72Z" fill="#EBEBEB"/>
<path d="M440.673 107.125L440.659 107.133L430.55 112.969L433.248 116.794L443.003 111.162L440.673 107.125Z" fill="#EBEBEB"/>
<path d="M453.868 129.98L451.443 125.78L451.428 125.795L446.232 127.176L444.085 124.123L441.901 125.384L440.033 126.462L444.258 132.474L453.853 129.996L453.868 129.98Z" fill="#EBEBEB"/>
<path d="M452.678 116.47L455.232 121.977L451.431 125.791L453.856 129.991L460.808 122.919L460.475 122.202L455.287 111.027L454.76 109.886L450.771 101.294L440.659 107.133L442.99 111.17L448.678 107.885L450.697 112.231L445.376 115.304L447.707 119.34L452.678 116.47Z" fill="white"/>
<path d="M526.688 48.8873L490.117 70.0018L511.232 106.573L547.803 85.4585L526.688 48.8873Z" fill="#F7DF1E"/>
<path d="M531.18 84.3896C532.611 85.1671 534.08 85.4978 535.775 84.5192C537.199 83.6971 537.697 82.4602 537.13 81.4769C536.449 80.2984 535.274 80.4207 533.31 80.64L532.239 80.7674C529.149 81.1427 526.737 80.7703 525.122 77.9723C523.634 75.3949 524.465 72.299 527.534 70.5271C529.719 69.2656 531.729 69.1191 534.01 70.4567L532.326 73.72C531.127 73.0037 530.251 72.9544 529.264 73.5242C528.257 74.1053 527.988 75.1122 528.47 75.9464C529.065 76.9773 529.945 77.0261 531.788 76.8133L532.859 76.6853C536.502 76.2516 538.888 76.5763 540.545 79.4463C542.331 82.5403 540.879 85.6387 537.615 87.5232C534.423 89.3659 531.483 89.0354 529.324 87.6245L531.18 84.3896ZM519.212 91.6964C520.305 92.3425 521.263 92.8688 522.444 92.1871C523.573 91.5352 524.03 90.6822 523.038 88.9645L516.292 77.2792L519.728 75.2951L526.502 87.0269C528.556 90.5853 527.405 93.4094 524.36 95.1676C521.608 96.7563 519.193 96.2523 517.392 95.0051L519.212 91.6964Z" fill="black"/>
<path d="M218.178 433.929C219.682 436.534 223.012 437.426 225.617 435.922L252.757 420.253C255.361 418.749 256.253 415.419 254.75 412.815L239.08 385.675C237.576 383.07 234.246 382.178 231.642 383.681L204.502 399.351C201.898 400.855 201.005 404.185 202.509 406.789L218.178 433.929L218.178 433.929Z" fill="#563D7C"/>
<path d="M224.292 409.495L221.302 404.316L225.86 401.684C226.295 401.433 226.734 401.227 227.179 401.067C227.624 400.907 228.055 400.83 228.473 400.837C228.89 400.844 229.288 400.959 229.665 401.182C230.042 401.406 230.379 401.776 230.678 402.293C231.215 403.223 231.324 404.056 231.004 404.792C230.685 405.528 230.091 406.146 229.222 406.648L224.292 409.495ZM214.248 403.343L227.032 425.486L237.763 419.291C238.755 418.718 239.65 418.036 240.447 417.244C241.245 416.453 241.861 415.587 242.297 414.647C242.732 413.706 242.931 412.702 242.894 411.635C242.857 410.567 242.516 409.476 241.871 408.359C241.072 406.974 240.052 405.984 238.813 405.39C237.574 404.796 236.159 404.696 234.568 405.091C235.286 404.043 235.683 403 235.76 401.964C235.837 400.927 235.553 399.85 234.908 398.734C234.311 397.7 233.64 396.93 232.893 396.424C232.146 395.918 231.34 395.632 230.475 395.567C229.61 395.501 228.689 395.626 227.714 395.941C226.738 396.256 225.723 396.718 224.668 397.327L214.248 403.343ZM229.717 418.891L226.207 412.813L231.51 409.751C232.565 409.142 233.553 408.896 234.474 409.012C235.396 409.128 236.185 409.754 236.841 410.891C237.176 411.47 237.352 412.002 237.37 412.488C237.389 412.973 237.295 413.42 237.09 413.828C236.884 414.236 236.591 414.612 236.211 414.956C235.83 415.3 235.402 415.609 234.927 415.883L229.717 418.891Z" fill="white"/>
<path d="M110.062 402.406C111.843 401.378 112.453 399.101 111.425 397.321C110.397 395.54 108.12 394.93 106.339 395.958C104.558 396.986 103.948 399.263 104.976 401.044C106.004 402.824 108.281 403.434 110.062 402.406Z" fill="#61DAFB"/>
<path d="M112.01 405.784C121.564 400.264 127.604 392.834 125.5 389.188C123.396 385.542 113.945 387.06 104.391 392.58C94.8368 398.1 88.7971 405.53 90.9009 409.176C93.0048 412.822 102.456 411.304 112.01 405.784Z" stroke="#61DAFB" stroke-width="5"/>
<path d="M104.386 405.79C113.939 411.306 123.391 412.819 125.498 409.169C127.604 405.52 121.568 398.089 112.015 392.573C102.462 387.057 93.0098 385.544 90.903 389.194C88.7962 392.843 94.8325 400.274 104.386 405.79Z" stroke="#61DAFB" stroke-width="5"/>
<path d="M100.576 399.183C100.575 410.217 103.988 419.162 108.199 419.162C112.41 419.162 115.824 410.216 115.825 399.181C115.826 388.147 112.412 379.202 108.201 379.202C103.99 379.202 100.576 388.148 100.576 399.183Z" stroke="#61DAFB" stroke-width="5"/>
<path d="M170.398 364.872C173.983 371.082 180.689 374.364 187.39 373.886L168.07 357.704C168.333 360.231 169.126 362.673 170.398 364.872ZM196.217 348.91C195.098 346.971 193.626 346.031 192.425 345.331C190.884 344.498 189.508 343.834 188.762 342.541C187.929 341.1 188.247 339.126 189.788 338.237C189.857 338.196 189.928 338.167 189.999 338.132C185.731 337.186 181.112 337.772 177.028 340.13C171.548 343.294 168.35 348.889 168.004 354.767C168.378 354.566 168.73 354.373 169.024 354.203C170.665 353.256 173.089 351.59 173.089 351.59C173.906 351.052 174.723 352.237 173.936 352.824C173.936 352.824 173.144 353.415 172.227 354.01L187.749 367.704L185.238 355.426L178.928 350.141C178.055 350.579 177.197 350.941 177.197 350.941C176.323 351.38 175.676 350.03 176.55 349.592C176.55 349.592 179.255 348.295 180.797 347.405C182.437 346.458 184.862 344.793 184.862 344.793C185.68 344.254 186.496 345.439 185.709 346.027C185.709 346.027 184.915 346.618 184 347.213L199.404 360.802L197.95 354.671C197.376 352.109 196.992 350.253 196.217 348.91Z" fill="#00749A"/>
<path d="M187.152 357.029L190.341 373.422C192.025 373.015 193.641 372.369 195.141 371.503C196.968 370.448 198.538 369.121 199.837 367.606C199.754 367.563 199.675 367.512 199.601 367.455L187.152 357.029ZM195.503 340.343C195.859 340.804 196.207 341.318 196.54 341.895C197.459 343.487 198.195 345.448 198.592 348.202L201.798 364.822C204.892 359.41 205.112 352.547 201.77 346.759C200.256 344.126 198.1 341.919 195.503 340.343Z" fill="#00749A"/>
<path d="M175.527 337.53C165.445 343.352 161.977 356.29 167.798 366.373C173.62 376.457 186.559 379.923 196.642 374.102C206.724 368.281 210.193 355.342 204.371 345.258C198.549 335.175 185.609 331.709 175.527 337.53ZM196.158 373.263C186.538 378.818 174.191 375.51 168.637 365.889C163.083 356.269 166.391 343.924 176.011 338.369C185.631 332.815 197.977 336.123 203.531 345.743C209.085 355.364 205.777 367.71 196.158 373.263Z" fill="#00749A"/>
<path d="M247.584 296.338C237.486 302.168 234.025 315.082 239.856 325.181C244.52 333.26 253.717 337.089 262.378 335.313C263.39 334.954 263.399 334.195 263.12 333.712C262.868 333.276 262.019 331.845 261.129 330.321C256.681 334.365 253.723 331.721 253.723 331.721C251.671 330.088 250.148 330.218 250.148 330.218C247.834 330.04 249.631 329.034 249.631 329.034C251.542 328.103 253.522 329.3 253.522 329.3C256.767 331.154 258.947 328.817 259.721 327.748C259.203 326.471 259.211 325.391 259.47 324.632C255.142 326.515 249.967 327.412 245.922 320.405C244.769 318.409 244.542 316.365 244.972 314.409C244.517 314.058 242.817 312.56 242.356 309.468C242.356 309.468 243.607 308.09 248.468 308.438C249.692 307.191 251.139 306.085 252.689 305.181C254.247 304.29 255.93 303.59 257.625 303.151C259.75 298.77 261.567 298.376 261.567 298.376C264.016 300.321 264.464 302.542 264.54 303.112C266.452 303.716 268.103 304.937 269.255 306.934C273.31 313.957 269.925 317.973 266.115 320.777C267.098 320.965 268.325 321.741 269.31 323.447C270.723 325.893 271.839 327.875 272.186 328.477C272.467 328.964 273.126 329.344 273.949 328.629C279.813 322.016 281.09 312.143 276.427 304.067C270.596 293.968 257.683 290.508 247.584 296.338Z" fill="#161614"/>
<path d="M251.186 328.99C251.198 329.104 251.071 329.214 250.905 329.226C250.738 329.243 250.592 329.162 250.582 329.046C250.567 328.93 250.695 328.821 250.864 328.808C251.031 328.791 251.179 328.872 251.186 328.99ZM252.549 329.273C252.508 329.404 252.316 329.465 252.127 329.404C251.933 329.346 251.813 329.188 251.854 329.055C251.897 328.922 252.084 328.865 252.278 328.923C252.472 328.983 252.593 329.139 252.549 329.273L252.549 329.273ZM253.759 329.943C253.692 330.086 253.466 330.119 253.259 330.022C253.053 329.924 252.941 329.729 253.01 329.585C253.078 329.441 253.299 329.407 253.507 329.502C253.715 329.603 253.827 329.798 253.759 329.944L253.759 329.943ZM255.489 330.53C255.452 330.699 255.222 330.792 254.978 330.732C254.734 330.676 254.568 330.493 254.605 330.324C254.642 330.155 254.875 330.062 255.119 330.121C255.363 330.176 255.533 330.359 255.489 330.53L255.489 330.53ZM257.069 330.153C257.108 330.322 256.94 330.506 256.698 330.564C256.455 330.621 256.222 330.531 256.181 330.363C256.14 330.194 256.308 330.007 256.554 329.951C256.797 329.894 257.028 329.983 257.069 330.153L257.069 330.153ZM258.703 329.437C258.795 329.585 258.691 329.812 258.476 329.94C258.26 330.071 258.012 330.051 257.924 329.904C257.836 329.752 257.937 329.529 258.153 329.399C258.368 329.269 258.616 329.287 258.703 329.437ZM260.177 328.509C260.288 328.641 260.224 328.879 260.032 329.044C259.842 329.205 259.593 329.228 259.482 329.098C259.368 328.962 259.435 328.722 259.624 328.561C259.819 328.398 260.063 328.375 260.177 328.509Z" fill="#161614"/>
<path d="M344.002 263.153L318.953 256.442C317.51 256.055 316.027 256.911 315.64 258.354L314.246 263.556L320.845 265.324C321.627 264.434 322.869 264.011 324.092 264.339C325.321 264.669 326.189 265.667 326.415 266.836L332.774 268.541C333.556 267.641 334.807 267.209 336.036 267.54C337.754 267.999 338.772 269.763 338.312 271.481C337.852 273.199 336.088 274.217 334.369 273.757C333.077 273.41 332.18 272.324 332.012 271.076L326.082 269.487L331.794 279.382C332.144 279.359 332.496 279.393 332.835 279.483C334.553 279.943 335.571 281.707 335.112 283.425C334.651 285.143 332.886 286.162 331.17 285.701C329.452 285.24 328.434 283.476 328.894 281.759C329.004 281.347 329.195 280.961 329.455 280.624L323.689 270.637C323.267 270.695 322.837 270.667 322.426 270.556C321.125 270.208 320.228 269.112 320.066 267.855L313.561 266.112L308.959 283.287C308.572 284.731 309.429 286.215 310.872 286.601L335.922 293.313C337.364 293.7 338.847 292.843 339.234 291.4L345.915 266.467C346.301 265.024 345.444 263.54 344.002 263.153" fill="#DE4C36"/>
<path fill-rule="evenodd" clip-rule="evenodd" d="M398.209 250.593L392.747 251.58L388.918 244.947L394.331 243.877L398.209 250.593ZM399.038 250.114L402.624 245.878L398.794 239.244L395.161 243.398L399.038 250.114ZM389.096 244.182L392.93 240.249L397.965 239.168L394.553 243.061L389.096 244.182ZM387.472 244.435L382.012 245.423L378.181 238.788L383.595 237.719L387.472 244.435ZM388.302 243.955L391.889 239.72L388.058 233.086L384.425 237.24L388.302 243.955ZM378.36 238.024L382.194 234.091L387.229 233.01L383.817 236.903L378.36 238.024L378.36 238.024ZM398.028 238.34L392.567 239.329L388.736 232.694L394.15 231.625L398.028 238.34ZM398.857 237.861L402.444 233.626L398.614 226.992L394.98 231.146L398.857 237.861ZM388.915 231.929L392.749 227.997L397.784 226.916L394.372 230.808L388.915 231.93L388.915 231.929ZM398.062 225.963L392.601 226.952L388.771 220.317L394.185 219.247L398.062 225.963ZM398.892 225.484L402.478 221.249L398.648 214.615L395.014 218.768L398.892 225.484L398.892 225.484ZM388.95 219.553L392.784 215.62L397.819 214.538L394.407 218.431L388.95 219.553ZM408.618 219.869L403.157 220.857L399.327 214.223L404.741 213.153L408.618 219.869ZM409.447 219.39L413.034 215.155L409.204 208.521L405.57 212.674L409.447 219.39ZM399.505 213.459L403.339 209.526L408.374 208.444L404.962 212.337L399.505 213.458" fill="#FF9900"/>
<path d="M460.046 177.721C460.653 176.678 461.833 175.994 463.04 175.992C469.085 175.936 475.129 175.875 481.174 175.821C482.31 175.809 483.434 176.432 483.996 177.425L492.942 192.92C493.543 193.945 493.476 195.286 492.845 196.28C489.78 201.464 486.72 206.65 483.657 211.834C483.037 212.897 481.808 213.552 480.581 213.497C478.763 213.494 476.945 213.496 475.128 213.494C474.753 213.489 474.363 213.538 474.011 213.381C474.05 213.047 474.343 212.838 474.537 212.59C475.001 212.081 475.356 211.49 475.715 210.906C475.795 210.74 475.976 210.681 476.15 210.689C477.7 210.685 479.251 210.705 480.802 210.692C481.134 210.692 481.276 210.355 481.421 210.113C484.424 205.02 487.438 199.932 490.441 194.838C490.56 194.664 490.55 194.436 490.432 194.262C487.484 189.149 484.53 184.038 481.58 178.926C481.48 178.71 481.252 178.589 481.018 178.613C475.019 178.677 469.019 178.736 463.02 178.799C462.911 178.79 462.801 178.815 462.706 178.87C462.611 178.925 462.534 179.007 462.487 179.106C459.433 184.27 456.384 189.438 453.33 194.601C453.193 194.792 453.176 195.05 453.317 195.243C456.269 200.354 459.22 205.467 462.172 210.58C462.215 210.672 462.286 210.75 462.374 210.801C462.463 210.853 462.565 210.876 462.667 210.868C464.27 210.855 465.872 210.837 467.475 210.822C468.368 210.795 469.329 210.53 469.918 209.816C470.443 209.197 470.517 208.253 470.098 207.557C467.17 202.472 464.226 197.395 461.301 192.309C461.154 192.093 461.26 191.783 461.492 191.678C462.07 191.339 462.649 190.999 463.235 190.674C463.474 190.528 463.781 190.675 463.882 190.92C466.832 196.035 469.794 201.144 472.736 206.264C473.524 207.626 473.821 209.432 472.945 210.827C471.857 212.528 469.838 213.466 467.859 213.58C466.148 213.684 464.428 213.634 462.714 213.677C461.536 213.731 460.343 213.112 459.756 212.081L450.809 196.585C450.218 195.582 450.253 194.267 450.862 193.281C453.925 188.095 456.985 182.907 460.046 177.721Z" fill="#8CC84B"/>
<path d="M470.206 186.167C472.113 184.895 474.264 183.723 476.61 183.669C478.422 183.62 480.094 184.748 481.003 186.268C481.084 186.497 480.934 186.736 480.728 186.835C480.153 187.167 479.583 187.507 479.002 187.827C478.763 187.977 478.492 187.834 478.337 187.636C477.748 186.998 476.928 186.502 476.033 186.547C474.667 186.629 473.453 187.365 472.303 188.043C471.485 188.575 470.62 189.172 470.192 190.081C469.86 190.774 470.131 191.629 470.68 192.127C471.118 192.46 471.706 192.309 472.196 192.2C474.944 191.446 477.438 189.923 480.254 189.393C481.417 189.168 482.742 189.272 483.66 190.095C484.88 191.205 485.628 192.941 485.291 194.592C485.025 195.944 484.164 197.094 483.177 198.018C481.855 199.232 480.286 200.15 478.659 200.889C477.115 201.56 475.387 202.05 473.699 201.708C472.264 201.43 471.049 200.406 470.375 199.131C470.264 198.913 470.389 198.645 470.601 198.546C471.177 198.207 471.755 197.871 472.338 197.544C472.56 197.394 472.847 197.495 472.984 197.706C473.495 198.343 474.181 198.925 475.03 198.988C476.644 199.068 478.091 198.163 479.45 197.407C480.537 196.713 481.781 195.975 482.266 194.711C482.504 194.013 482.24 193.227 481.76 192.697C481.325 192.267 480.652 192.337 480.103 192.447C477.316 193.062 474.914 194.809 472.093 195.314C470.952 195.526 469.67 195.422 468.744 194.659C467.44 193.574 466.689 191.736 467.149 190.063C467.586 188.411 468.858 187.137 470.206 186.166L470.206 186.167Z" fill="#8CC84B"/>
<path fill-rule="evenodd" clip-rule="evenodd" d="M547.258 163.498C557.357 157.667 563.148 148.791 560.194 143.674C557.239 138.556 546.657 139.134 536.558 144.964C526.459 150.795 520.668 159.67 523.622 164.788C526.577 169.906 537.159 169.328 547.258 163.498Z" fill="#6E81B6"/>
<path fill-rule="evenodd" clip-rule="evenodd" d="M547.343 155.086L545.555 149.895C545.151 148.723 544.527 148.035 543.7 147.85C542.9 147.672 541.876 147.951 540.572 148.704L539.001 149.611L538.115 147.039C538.099 146.991 538.072 146.947 538.037 146.911C538.001 146.875 537.959 146.847 537.911 146.829C537.864 146.811 537.813 146.804 537.762 146.808C537.712 146.813 537.663 146.828 537.619 146.853L535.451 148.105C535.309 148.187 535.245 148.359 535.298 148.514L537.196 154.026C536.787 153.519 536.294 153.164 535.72 152.968C534.664 152.607 533.445 152.819 532.097 153.597L527.895 156.023C527.753 156.106 527.689 156.277 527.742 156.433L531.584 167.59C531.618 167.687 531.692 167.763 531.788 167.799C531.885 167.835 531.991 167.827 532.081 167.775L534.266 166.514C534.408 166.431 534.472 166.26 534.418 166.104L533.489 163.405L535.116 162.466C535.969 161.974 536.633 161.467 537.088 160.962C537.553 160.445 537.897 159.825 538.111 159.122C538.287 158.561 538.374 157.996 538.372 157.442L539.14 159.671C539.173 159.768 539.248 159.845 539.344 159.88C539.44 159.917 539.547 159.907 539.636 159.856L541.804 158.604C541.947 158.522 542.01 158.351 541.957 158.195L539.848 152.071L541.336 151.212C541.97 150.846 542.228 150.865 542.31 150.89C542.384 150.913 542.58 151.033 542.791 151.645L544.491 156.581C544.508 156.629 544.535 156.672 544.57 156.708C544.605 156.745 544.648 156.773 544.696 156.79C544.743 156.808 544.794 156.815 544.844 156.811C544.895 156.807 544.944 156.791 544.987 156.766L547.19 155.495C547.259 155.455 547.312 155.393 547.34 155.318C547.368 155.244 547.369 155.162 547.343 155.086ZM535.065 157.032C535.333 157.811 535.364 158.458 535.158 158.956C534.95 159.463 534.433 159.957 533.624 160.425L532.655 160.984L531.275 156.976L532.527 156.253C533.447 155.722 533.931 155.705 534.175 155.783C534.513 155.893 534.821 156.325 535.065 157.032ZM552.652 143.192C551.596 142.832 550.377 143.043 549.029 143.822L544.827 146.248C544.685 146.33 544.621 146.501 544.674 146.657L548.517 157.814C548.55 157.911 548.624 157.988 548.721 158.023C548.817 158.059 548.924 158.05 549.012 157.999L551.198 156.738C551.34 156.655 551.404 156.484 551.35 156.328L550.421 153.63L552.048 152.69C552.902 152.198 553.565 151.691 554.02 151.186C554.485 150.669 554.83 150.049 555.043 149.346C555.225 148.767 555.312 148.183 555.305 147.612C555.297 147.04 555.192 146.459 554.994 145.882C554.504 144.461 553.716 143.556 552.652 143.192ZM552.121 147.185C552.389 147.964 552.42 148.611 552.215 149.109C552.006 149.616 551.49 150.11 550.68 150.577L549.711 151.136L548.331 147.129L549.583 146.406C550.503 145.874 550.987 145.857 551.231 145.936C551.569 146.046 551.877 146.478 552.121 147.185Z" fill="white"/>
<path fill-rule="evenodd" clip-rule="evenodd" d="M532.293 155.991C533.123 155.512 533.765 155.346 534.218 155.493C534.672 155.64 535.042 156.128 535.327 156.957C535.624 157.82 535.653 158.542 535.414 159.123C535.174 159.705 534.614 160.249 533.733 160.758L532.404 161.525L530.796 156.856L532.293 155.991ZM531.846 167.514L534.031 166.252L533.01 163.286L534.882 162.205C535.708 161.729 536.337 161.249 536.77 160.768C537.203 160.286 537.52 159.716 537.721 159.055C537.893 158.508 537.975 157.965 537.967 157.428C537.959 156.891 537.862 156.351 537.674 155.806C537.219 154.483 536.51 153.658 535.547 153.329C534.585 153 533.471 153.201 532.207 153.931L528.005 156.357L531.846 167.514ZM535.561 148.438L537.729 147.187L538.75 150.153L540.682 149.038C541.897 148.336 542.858 148.064 543.563 148.221C544.269 148.379 544.804 148.986 545.168 150.042L546.956 155.234L544.754 156.506L543.053 151.569C542.86 151.008 542.625 150.684 542.349 150.599C542.072 150.514 541.656 150.631 541.102 150.951L539.369 151.952L541.57 158.344L539.402 159.595L535.561 148.438ZM549.349 146.144C550.179 145.665 550.821 145.499 551.275 145.645C551.728 145.792 552.098 146.28 552.383 147.109C552.681 147.973 552.71 148.695 552.47 149.276C552.231 149.857 551.67 150.402 550.79 150.91L549.46 151.678L547.852 147.008L549.349 146.144ZM548.902 157.666L551.087 156.405L550.066 153.439L551.938 152.358C552.764 151.881 553.393 151.402 553.826 150.92C554.259 150.439 554.576 149.868 554.777 149.208C554.949 148.66 555.031 148.118 555.023 147.581C555.015 147.044 554.918 146.503 554.731 145.958C554.275 144.636 553.566 143.81 552.603 143.482C551.64 143.153 550.527 143.354 549.263 144.083L545.061 146.509L548.902 157.666Z" fill="black"/>
<path d="M302.847 353.378L310.161 349.155L310.087 391.255L273.59 370.269L287.578 362.193L296.098 367.026L296.081 357.284L302.847 353.378Z" fill="#41B883"/>
<path d="M273.59 370.269L310.087 391.255L310.161 349.155L302.847 353.378L302.802 378.638L280.813 366.099L273.59 370.269Z" fill="#41B883"/>
<path d="M280.813 366.099L302.855 378.729L302.847 353.378L296.081 357.284L296.098 367.026L287.578 362.193L280.813 366.099Z" fill="#35495E"/>
<path d="M355.094 329.423L368.607 313.539L389.515 309.406L399.682 333.548L389.721 350.11L370.689 350.43L355.094 329.423Z" fill="#E23237"/>
<path d="M389.515 309.406L368.607 313.539L389.721 350.11L399.689 333.561L389.515 309.406Z" fill="#B52E31"/>
<path d="M371.099 317.794L374.116 347.5L378.037 345.146L377.093 338.597L386.603 333.106L392.044 337.149L395.868 335.031L371.099 317.794ZM375.489 325.335L383.396 330.755L376.661 334.644L375.489 325.335Z" fill="white"/>
<path d="M437.885 300.865L428.742 285.03L447.028 285.029L450.075 290.308L437.885 290.308L443.98 300.865L437.885 300.865Z" fill="#00B0FF"/>
<path d="M447.028 285.029L456.171 269.194L465.313 285.029L459.218 295.586L453.123 295.586L459.218 285.029L456.171 279.751L450.075 290.308L447.028 285.029Z" fill="#0081CB"/>
<path d="M453.123 295.586L456.17 300.865L468.361 300.864L465.313 295.586L453.123 295.586Z" fill="#00B0FF"/>
<path d="M468.361 300.865L477.504 285.029L471.408 274.472L468.361 279.751L471.408 285.029L465.313 295.586L468.361 300.865ZM465.313 274.472L462.266 269.194L465.313 263.915L468.361 269.194L465.313 274.472Z" fill="#0081CB"/>
<path d="M550.757 252.573C548.738 253.671 547.313 254.764 546.34 256.066C546.054 256.432 545.457 256.777 545.685 257.286C546 257.373 546.215 257.687 546.549 257.864C547.139 258.196 548.055 258.577 548.732 258.657C549.487 258.76 550.243 258.862 550.994 258.9C552.314 258.946 553.612 258.667 554.908 258.727C555.659 258.764 556.468 258.904 557.234 258.966C557.624 259.01 557.988 259.238 558.409 259.163L558.365 259.087C558.06 258.961 557.821 258.661 557.501 258.509C557.107 258.4 556.726 258.317 556.332 258.208C555.042 257.64 553.651 257.298 552.273 257.151C551.156 257.055 548.978 257.303 548.115 256.556C548.115 256.556 548.076 256.545 548.036 256.534C548.554 256.168 549.084 255.592 549.519 255.139C550.234 254.423 551.034 254.029 551.773 253.299C552.113 252.968 552.438 252.612 552.763 252.256L552.632 252.029C551.922 251.833 551.249 251.414 550.528 251.257C548.618 250.879 546.599 250.597 544.631 250.521C543.569 250.462 542.384 250.708 541.315 250.753C540.93 250.773 540.388 250.985 540.069 250.833C539.3 250.536 538.629 249.947 537.926 249.478C536.403 248.505 534.818 247.367 533.35 246.262C532.334 245.536 531.492 244.709 530.42 244.116C525.38 241.303 521.093 240.311 515.342 240.231C514.116 240.232 512.89 240.636 511.561 241.034C510.925 241.367 510.274 241.676 509.637 242.01C509.137 242.063 508.462 241.813 507.983 241.787C506.04 241.696 501.247 241.838 501.704 245.042C501.979 247.071 504.579 247.724 505.632 248.227C506.39 248.564 507.316 248.904 507.994 249.388C508.416 249.717 508.728 250.143 509.164 250.497C510.204 251.378 511.291 252.4 512.411 253.133C512.991 253.505 513.61 253.889 514.235 254.167C514.595 254.33 515.016 254.255 515.353 254.667C515.296 255.373 515.709 256.145 515.874 256.891C516.626 260.261 519.015 263.594 521.493 264.957C522.255 265.359 524.003 266.202 524.965 264.939C525.822 263.839 524.742 262.543 524.337 261.094C524.236 260.748 524.07 260.575 524.103 260.286L524.132 260.337C524.888 260.843 525.63 261.324 526.361 261.844C527.847 262.636 529.933 263.148 531.548 263.36C532.408 263.47 533.332 263.98 534.239 263.827L534.195 263.751L534.145 263.78C533.865 263.638 533.582 263.667 533.281 263.605C532.572 263.409 531.753 263.141 531.114 262.837C529.253 262.026 527.428 260.992 525.675 259.85C524.825 259.297 523.981 258.64 523.206 258.044C522.881 257.827 522.619 257.373 522.283 257.365C522.231 258.136 521.96 258.931 522.08 259.771C522.235 261.129 522.957 262.496 523.585 263.985C523.5 264.068 523.535 264.014 523.515 264.093C522.602 264.351 521.848 263.676 521.141 263.141C519.36 261.779 517.573 258.973 517.025 256.529C516.893 255.898 516.677 253.801 516.087 253.468C515.661 253.075 515.003 253.084 514.511 252.864C513.911 252.571 513.212 252.166 512.682 251.765C511.269 250.696 510.067 249.302 508.604 248.262C507.926 247.778 507.011 247.398 506.238 247.036C505.372 246.627 504.572 246.449 503.733 245.856C503.448 245.65 503.011 245.297 503.036 244.879C502.969 244.648 503.024 244.515 503.194 244.349C503.357 243.885 504.482 243.707 504.892 243.672C506.031 243.519 507.007 243.428 508.084 243.513C508.578 243.564 509.228 243.828 509.748 243.696L510.271 243.395C511.169 243.112 511.991 242.469 512.869 242.265C514.435 241.933 515.993 241.875 517.456 241.939C521.925 242.153 526.331 243.582 530.202 246.093C530.836 246.501 531.266 246.96 531.89 247.408C533.126 248.344 534.502 249.233 535.724 250.143C536.931 251.028 538.128 251.953 539.443 252.507C540.122 252.821 541.775 252.238 542.607 252.128C543.236 252.068 544.124 251.825 544.731 251.844C545.883 251.885 547.079 252.004 548.21 252.124C548.783 252.198 550.391 252.111 550.757 252.573Z" fill="#00546B"/>
<path d="M512.719 245.28C512.296 245.524 512.027 245.747 511.772 245.995L511.801 246.045L511.851 246.017C512.283 246.306 512.792 246.383 513.244 246.592C513.677 246.881 514.084 247.185 514.516 247.474C514.527 247.434 514.537 247.395 514.537 247.395C514.739 246.941 514.68 246.437 514.33 245.831C514.079 245.74 513.952 245.578 513.726 245.473C513.431 245.306 513.035 245.367 512.719 245.28Z" fill="#00546B"/>
<path d="M541.329 315.417C541.37 315.458 541.406 315.504 541.435 315.554L545.942 323.362C546 323.462 546.03 323.576 546.03 323.691C546.03 323.807 545.998 323.921 545.94 324.021L541.533 331.596L545.85 339.074C545.968 339.278 545.968 339.528 545.849 339.733L536.649 355.544C536.628 355.58 536.6 355.611 536.573 355.643C536.563 355.654 536.555 355.669 536.544 355.681C536.462 355.761 536.361 355.82 536.25 355.85C536.232 355.855 536.213 355.854 536.195 355.857C536.157 355.864 536.118 355.873 536.078 355.874L517.789 355.934C517.672 355.934 517.558 355.904 517.458 355.847C517.357 355.789 517.274 355.706 517.216 355.606L503.693 332.184C503.664 332.133 503.642 332.079 503.627 332.023C503.622 332.004 503.623 331.983 503.619 331.964C503.613 331.928 503.605 331.891 503.605 331.854C503.605 331.83 503.612 331.806 503.615 331.781C503.618 331.749 503.62 331.717 503.628 331.686C503.635 331.66 503.649 331.635 503.659 331.61C503.67 331.581 503.678 331.552 503.694 331.525L503.695 331.525L508.294 323.62C508.352 323.52 508.435 323.437 508.536 323.379C508.636 323.321 508.75 323.29 508.866 323.29L518.011 323.259L518.012 323.258C518.043 323.259 518.073 323.266 518.103 323.27C518.13 323.274 518.158 323.275 518.184 323.281C518.215 323.29 518.243 323.305 518.274 323.318C518.296 323.328 518.321 323.334 518.341 323.346C518.374 323.365 518.401 323.39 518.43 323.413C518.445 323.426 518.463 323.435 518.478 323.45C518.519 323.491 518.554 323.537 518.583 323.587L527.03 338.216L530.862 331.629L526.544 324.15C526.515 324.101 526.493 324.046 526.479 323.991C526.474 323.971 526.474 323.951 526.471 323.931C526.465 323.894 526.457 323.858 526.457 323.821C526.457 323.797 526.464 323.772 526.466 323.748C526.47 323.716 526.471 323.684 526.48 323.652C526.487 323.627 526.5 323.603 526.511 323.578C526.522 323.548 526.53 323.519 526.545 323.492L526.546 323.492L531.146 315.587C531.204 315.487 531.287 315.403 531.388 315.345C531.488 315.287 531.602 315.257 531.718 315.256L540.863 315.226C540.895 315.226 540.924 315.233 540.955 315.237C540.981 315.241 541.009 315.242 541.035 315.248C541.067 315.257 541.095 315.272 541.125 315.285C541.148 315.295 541.172 315.301 541.193 315.313C541.225 315.332 541.252 315.357 541.281 315.38C541.297 315.393 541.315 315.402 541.329 315.417ZM544.606 323.693L540.858 317.201L539.249 319.967L537.025 323.789L540.774 330.281L544.607 323.693L544.606 323.693ZM544.515 339.406L540.764 332.909L538.569 336.653L532.297 347.34L536.083 353.898L544.515 339.406ZM505.408 332.508L518.171 354.615L534.937 354.559L531.151 348.003L522.43 348.096L522.427 348.096L522.423 348.096C522.394 348.096 522.364 348.088 522.334 348.085C522.308 348.081 522.281 348.081 522.256 348.075L522.254 348.073C522.225 348.066 522.199 348.052 522.172 348.041C522.147 348.03 522.12 348.023 522.097 348.01L522.095 348.008C522.07 347.994 522.047 347.973 522.024 347.955C522.002 347.939 521.979 347.926 521.96 347.906L521.959 347.905C521.937 347.883 521.919 347.855 521.9 347.829C521.885 347.809 521.867 347.791 521.854 347.77L513.028 332.483L508.608 332.497L505.408 332.509L505.408 332.508ZM509.245 324.606L505.413 331.191L513.031 331.166L516.862 324.58L509.244 324.607L509.245 324.606ZM524.04 343.354L526.263 339.534L518.007 325.234L516.397 328L514.174 331.822L522.43 346.121L524.04 343.354ZM532.096 316.573L528.265 323.158L535.883 323.132L539.714 316.547L532.096 316.573ZM535.88 324.45L531.459 324.464L528.259 324.475L532.007 330.968L536.427 330.953L539.629 330.942L535.88 324.45ZM531.154 346.686L536.797 337.067L539.618 332.26L532.005 332.286L527.597 339.862L523.58 346.767L531.154 346.686Z" fill="#FF2D20"/>
<path d="M378.312 401.734C377.477 402.216 376.399 401.919 375.91 401.072C375.421 400.225 375.703 399.144 376.538 398.661C377.373 398.179 378.45 398.476 378.94 399.323C379.429 400.17 379.147 401.252 378.312 401.734ZM361.571 411.399C360.736 411.882 359.659 411.584 359.17 410.737C358.681 409.89 358.962 408.809 359.797 408.327C360.632 407.845 361.71 408.141 362.199 408.988C362.688 409.836 362.407 410.917 361.571 411.399ZM373.513 392.167L373.47 385.102C373.469 384.907 373.391 384.72 373.253 384.582C373.115 384.443 372.929 384.364 372.736 384.363C372.542 384.362 372.357 384.438 372.221 384.575C372.085 384.712 372.01 384.899 372.011 385.093L372.054 392.247C369.084 392.516 366.103 393.431 363.294 395.053C360.485 396.675 358.202 398.799 356.484 401.237L350.311 397.622C350.142 397.524 349.943 397.496 349.757 397.545C349.57 397.595 349.411 397.717 349.316 397.885C349.22 398.053 349.195 398.253 349.246 398.442C349.297 398.63 349.421 398.792 349.589 398.89L355.686 402.46C352.143 408.328 351.67 415.718 354.79 422.323L391.163 401.323C387.002 395.318 380.366 392.034 373.513 392.167" fill="#3DDB85"/>
<path d="M454.79 377.04C455.05 377.49 455.309 377.827 455.549 378.045C455.801 378.257 456.091 378.478 456.444 378.696C456.561 378.759 456.641 378.842 456.69 378.927C456.76 379.049 456.758 379.212 456.67 379.425L456.198 380.379C456.131 380.515 456.043 380.614 455.945 380.671C455.824 380.741 455.667 380.75 455.482 380.711C455.207 380.627 454.948 380.516 454.714 380.392C454.473 380.256 454.218 380.095 453.923 379.892C453.62 381.559 452.751 382.807 451.316 383.635C450.294 384.225 449.311 384.404 448.378 384.164C447.445 383.924 446.691 383.321 446.129 382.348C445.532 381.314 445.413 380.265 445.79 379.204C446.166 378.143 446.969 377.258 448.222 376.534C448.635 376.296 449.082 376.086 449.567 375.887C450.052 375.688 450.571 375.519 451.121 375.347L450.608 374.459C450.074 373.535 449.507 373.003 448.913 372.843C448.306 372.691 447.544 372.888 446.607 373.429C446.181 373.674 445.772 373.976 445.385 374.345C444.998 374.714 444.637 375.101 444.31 375.517C444.164 375.715 444.047 375.848 443.975 375.921C443.904 375.994 443.851 376.042 443.802 376.07C443.632 376.168 443.476 376.096 443.329 375.84L442.985 375.244C442.872 375.05 442.812 374.89 442.824 374.769C442.836 374.649 442.896 374.501 443.017 374.317C443.316 373.853 443.722 373.375 444.234 372.885C444.738 372.383 445.329 371.945 445.998 371.559C447.445 370.723 448.693 370.44 449.753 370.704C450.801 370.974 451.718 371.775 452.49 373.113L454.766 377.054L454.79 377.04ZM450.919 381.74C451.32 381.508 451.692 381.196 452.046 380.798C452.399 380.399 452.634 379.907 452.752 379.352C452.813 379.009 452.811 378.669 452.716 378.335C452.62 378.001 452.465 377.62 452.226 377.206L451.931 376.696C451.53 376.814 451.11 376.959 450.693 377.135C450.276 377.311 449.885 377.504 449.508 377.722C448.693 378.193 448.188 378.695 447.976 379.255C447.764 379.815 447.837 380.39 448.188 380.998C448.518 381.569 448.91 381.911 449.382 382.027C449.85 382.163 450.36 382.063 450.919 381.74ZM461.445 377.415C461.226 377.541 461.059 377.589 460.912 377.56C460.773 377.543 460.589 377.422 460.383 377.233L452.096 369.481C451.883 369.28 451.755 369.143 451.706 369.058C451.593 368.863 451.628 368.697 451.822 368.585L453.014 367.897C453.245 367.763 453.424 367.709 453.559 367.745C453.698 367.761 453.869 367.89 454.076 368.079L460.768 374.951L458.017 365.803C457.937 365.525 457.919 365.325 457.974 365.195C458.029 365.066 458.171 364.919 458.39 364.793L459.363 364.231C459.594 364.098 459.774 364.043 459.92 364.072C460.059 364.089 460.243 364.21 460.425 364.413L467.052 371.453L464.451 362.088C464.384 361.803 464.377 361.596 464.42 361.474C464.476 361.344 464.606 361.204 464.825 361.078L465.956 360.425C466.15 360.313 466.316 360.347 466.435 360.553C466.471 360.614 466.493 360.682 466.523 360.762C466.553 360.842 466.585 360.953 466.614 361.115L469.111 372.21C469.178 372.495 469.184 372.703 469.129 372.832C469.074 372.961 468.944 373.101 468.737 373.22L467.691 373.824C467.46 373.958 467.281 374.012 467.135 373.983C466.988 373.954 466.812 373.846 466.623 373.63L460.208 366.874L462.857 375.788C462.937 376.066 462.955 376.267 462.907 376.408C462.859 376.549 462.71 376.684 462.491 376.811L461.445 377.415ZM477.264 368.719C476.631 369.084 475.957 369.376 475.264 369.582C474.572 369.787 474.006 369.903 473.585 369.903C473.327 369.906 473.123 369.861 473.011 369.78C472.899 369.698 472.805 369.591 472.741 369.481L472.383 368.861C472.236 368.606 472.263 368.428 472.445 368.322C472.518 368.28 472.598 368.25 472.685 368.233C472.772 368.215 472.91 368.2 473.06 368.179C473.578 368.122 474.113 368.008 474.643 367.832C475.186 367.648 475.689 367.423 476.175 367.142C476.941 366.7 477.46 366.222 477.719 365.715C477.978 365.209 477.972 364.693 477.684 364.195C477.488 363.854 477.217 363.638 476.864 363.533C476.512 363.428 475.979 363.46 475.271 363.61L473.191 364.081C472.142 364.314 471.246 364.279 470.529 363.964C469.818 363.66 469.268 363.184 468.902 362.551C468.607 362.04 468.457 361.527 468.451 361.011C468.445 360.496 468.541 359.987 468.751 359.508C468.955 359.018 469.249 358.572 469.651 358.146C470.053 357.719 470.529 357.363 471.064 357.054C471.332 356.899 471.619 356.75 471.907 356.632C472.208 356.507 472.492 356.408 472.775 356.309C473.053 356.23 473.32 356.157 473.581 356.104C473.842 356.05 474.054 356.025 474.218 356.028C474.444 356.027 474.622 356.054 474.758 356.121C474.888 356.176 475.001 356.289 475.1 356.459L475.43 357.031C475.577 357.286 475.557 357.476 475.375 357.582C475.277 357.638 475.091 357.681 474.828 357.703C473.952 357.787 473.083 358.078 472.219 358.577C471.526 358.977 471.042 359.402 470.798 359.851C470.554 360.3 470.563 360.765 470.851 361.264C471.048 361.604 471.338 361.826 471.715 361.917C472.091 362.007 472.675 361.979 473.439 361.813L475.482 361.363C476.519 361.137 477.377 361.161 478.042 361.442C478.707 361.723 479.219 362.19 479.584 362.822C479.886 363.345 480.051 363.883 480.083 364.416C480.102 364.956 480.021 365.489 479.813 365.999C479.611 366.521 479.287 366.999 478.856 367.459C478.407 367.946 477.884 368.361 477.264 368.719Z" fill="#252F3E"/>
<path fill-rule="evenodd" clip-rule="evenodd" d="M482.977 373.315C480.689 378.585 475.784 383.511 470.784 386.393C463.776 390.432 455.96 391.474 448.693 389.906C448.119 389.782 448.191 389.122 448.796 389.131C455.69 389.157 463.104 387.307 469.685 383.513C474.126 380.954 478.468 377.215 481.857 372.724C482.35 372.034 483.352 372.448 482.977 373.315Z" fill="#FF9900"/>
<path fill-rule="evenodd" clip-rule="evenodd" d="M483.543 370.446C482.653 370.083 479.981 372.077 478.772 372.985C478.411 373.258 478.153 372.953 478.358 372.494C479.714 369.571 483.738 367.868 484.485 368.151C485.24 368.446 486.855 372.528 485.757 375.562C485.591 376.031 485.19 376.067 485.125 375.618C484.915 374.133 484.427 370.796 483.543 370.446Z" fill="#FF9900"/>
</g>
<defs>
<linearGradient id="paint0_linear_2_283" x1="107.549" y1="287.341" x2="92.401" y2="343.875" gradientUnits="userSpaceOnUse">
<stop stop-color="#FFAA2A"/>
<stop offset="1" stop-color="#FFC06C"/>
</linearGradient>
<linearGradient id="paint1_linear_2_283" x1="91.1765" y1="300.718" x2="108.565" y2="330.835" gradientUnits="userSpaceOnUse">
<stop stop-color="#251200"/>
<stop offset="1"/>
</linearGradient>
<linearGradient id="paint2_linear_2_283" x1="151.527" y1="261.014" x2="182.648" y2="282.542" gradientUnits="userSpaceOnUse">
<stop stop-color="#A0CBFF"/>
<stop offset="0.394" stop-color="#A0CBFE"/>
<stop offset="0.583" stop-color="#8EC2FC"/>
<stop offset="0.784" stop-color="#83BCFB"/>
<stop offset="1" stop-color="#7FBAFB"/>
</linearGradient>
<linearGradient id="paint3_linear_2_283" x1="159.484" y1="263.305" x2="182.611" y2="285.061" gradientUnits="userSpaceOnUse">
<stop stop-color="#090058"/>
<stop offset="1" stop-color="#070033"/>
</linearGradient>
<linearGradient id="paint4_linear_2_283" x1="148.081" y1="265.112" x2="179.194" y2="286.635" gradientUnits="userSpaceOnUse">
<stop stop-color="#A0CBFF"/>
<stop offset="0.394" stop-color="#A0CBFE"/>
<stop offset="0.583" stop-color="#8EC2FC"/>
<stop offset="0.784" stop-color="#83BCFB"/>
<stop offset="1" stop-color="#7FBAFB"/>
</linearGradient>
<linearGradient id="paint5_linear_2_283" x1="153.835" y1="256.634" x2="185.071" y2="278.243" gradientUnits="userSpaceOnUse">
<stop stop-color="#A0CBFF"/>
<stop offset="0.394" stop-color="#A0CBFE"/>
<stop offset="0.583" stop-color="#8EC2FC"/>
<stop offset="0.784" stop-color="#83BCFB"/>
<stop offset="1" stop-color="#7FBAFB"/>
</linearGradient>
<radialGradient id="paint6_radial_2_283" cx="0" cy="0" r="1" gradientUnits="userSpaceOnUse" gradientTransform="translate(233.444 228.408) rotate(-30.0001) scale(29.4194 28.4834)">
<stop stop-color="#39464D" stop-opacity="0.98"/>
<stop offset="1" stop-color="#05151F"/>
</radialGradient>
</defs>
</svg>
