<svg width="193" height="181" viewBox="0 0 193 181" fill="none" xmlns="http://www.w3.org/2000/svg">
<path d="M148.39 47.2903C165.732 68.4577 161.856 99.953 139.714 117.635C117.572 135.317 85.5667 132.475 68.2256 111.308C50.8844 90.1406 54.7597 58.6453 76.9017 40.9632C99.0437 23.2812 131.049 26.1229 148.39 47.2903Z" stroke="url(#paint0_linear_2_213)" stroke-opacity="0.45" stroke-width="0.4"/>
<path d="M142.02 56.9255C158.117 76.5744 154.521 105.811 133.966 122.226C113.411 138.64 83.701 136.002 67.6038 116.353C51.5066 96.7036 55.1035 67.4668 75.6581 51.0524C96.2128 34.638 125.923 37.2765 142.02 56.9255Z" stroke="url(#paint1_linear_2_213)" stroke-opacity="0.45" stroke-width="0.4"/>
<path d="M135.65 66.5608C150.503 84.6914 147.185 111.67 128.217 126.816C109.25 141.963 81.8351 139.528 66.9818 121.397C52.1286 103.267 55.4471 76.2887 74.4143 61.1419C93.3816 45.9951 120.797 48.4303 135.65 66.5608Z" stroke="url(#paint2_linear_2_213)" stroke-opacity="0.45" stroke-width="0.4"/>
<path d="M129.28 76.1955C142.889 92.8076 139.849 117.527 122.469 131.406C105.089 145.286 79.9695 143.054 66.3601 126.442C52.7508 109.829 55.7909 85.1097 73.1708 71.2306C90.5507 57.3514 115.671 59.5833 129.28 76.1955Z" stroke="url(#paint3_linear_2_213)" stroke-opacity="0.45" stroke-width="0.4"/>
<path d="M122.91 85.8309C135.275 100.925 132.513 123.386 116.721 135.997C100.928 148.609 78.1036 146.58 65.7383 131.486C53.3729 116.393 56.1346 93.9316 71.9271 81.32C87.7196 68.7085 110.544 70.7371 122.91 85.8309Z" stroke="url(#paint4_linear_2_213)" stroke-opacity="0.45" stroke-width="0.4"/>
<path d="M116.539 95.466C127.661 109.041 125.178 129.244 110.973 140.588C96.7674 151.932 76.238 150.106 65.1166 136.531C53.9951 122.956 56.4784 102.753 70.6835 91.4092C84.8887 80.0654 105.418 81.8907 116.539 95.466Z" stroke="url(#paint5_linear_2_213)" stroke-opacity="0.45" stroke-width="0.4"/>
<path d="M110.169 105.101C120.047 117.158 117.842 135.102 105.224 145.178C92.6063 155.254 74.3722 153.632 64.4947 141.575C54.6172 129.519 56.8221 111.574 69.4398 101.498C82.0576 91.422 100.292 93.044 110.169 105.101Z" stroke="url(#paint6_linear_2_213)" stroke-opacity="0.45" stroke-width="0.4"/>
<path d="M103.799 114.736C112.433 125.274 110.506 140.96 99.4758 149.769C88.4454 158.577 72.5065 157.159 63.873 146.62C55.2395 136.082 57.1659 120.396 68.1963 111.587C79.2267 102.779 95.1656 104.198 103.799 114.736Z" stroke="url(#paint7_linear_2_213)" stroke-opacity="0.45" stroke-width="0.4"/>
<path d="M95.9918 125.519C103.381 134.539 101.733 147.966 92.2903 155.507C82.8473 163.048 69.2036 161.832 61.814 152.812C54.4244 143.792 56.0725 130.365 65.5155 122.824C74.9585 115.283 88.6022 116.499 95.9918 125.519Z" stroke="url(#paint8_linear_2_213)" stroke-opacity="0.45" stroke-width="0.4"/>
<path d="M89.6213 135.154C95.7669 142.656 94.3973 153.824 86.5416 160.097C78.686 166.371 67.3376 165.359 61.1919 157.857C55.0463 150.355 56.4159 139.187 64.2715 132.914C72.1272 126.64 83.4756 127.652 89.6213 135.154Z" stroke="url(#paint9_linear_2_213)" stroke-opacity="0.45" stroke-width="0.4"/>
<path d="M81.8142 145.937C86.7159 151.92 85.6247 160.83 79.3564 165.835C73.0881 170.841 64.0349 170.032 59.1332 164.049C54.2315 158.066 55.3227 149.156 61.591 144.15C67.8593 139.145 76.9125 139.953 81.8142 145.937Z" stroke="url(#paint10_linear_2_213)" stroke-opacity="0.45" stroke-width="0.4"/>
<path d="M75.4438 155.572C79.1016 160.037 78.2887 166.688 73.6078 170.426C68.9269 174.164 62.169 173.559 58.5112 169.094C54.8534 164.629 55.6663 157.978 60.3472 154.24C65.0281 150.502 71.786 151.107 75.4438 155.572Z" stroke="url(#paint11_linear_2_213)" stroke-opacity="0.45" stroke-width="0.4"/>
<path d="M69.0737 165.207C71.4875 168.153 70.9531 172.546 67.8596 175.016C64.766 177.487 60.3033 177.085 57.8895 174.138C55.4757 171.192 56.0101 166.799 59.1036 164.329C62.1972 161.858 66.6599 162.26 69.0737 165.207Z" stroke="url(#paint12_linear_2_213)" stroke-opacity="0.45" stroke-width="0.4"/>
<defs>
<linearGradient id="paint0_linear_2_213" x1="76.7749" y1="40.8085" x2="138.87" y2="118.565" gradientUnits="userSpaceOnUse">
<stop stop-color="#5E5E5E" stop-opacity="0.18"/>
<stop offset="1" stop-color="white"/>
</linearGradient>
<linearGradient id="paint1_linear_2_213" x1="75.5314" y1="50.8977" x2="133.191" y2="123.101" gradientUnits="userSpaceOnUse">
<stop stop-color="#5E5E5E" stop-opacity="0.18"/>
<stop offset="1" stop-color="white"/>
</linearGradient>
<linearGradient id="paint2_linear_2_213" x1="74.2876" y1="60.9872" x2="127.512" y2="127.636" gradientUnits="userSpaceOnUse">
<stop stop-color="#5E5E5E" stop-opacity="0.18"/>
<stop offset="1" stop-color="white"/>
</linearGradient>
<linearGradient id="paint3_linear_2_213" x1="73.044" y1="71.0759" x2="121.833" y2="132.171" gradientUnits="userSpaceOnUse">
<stop stop-color="#5E5E5E" stop-opacity="0.18"/>
<stop offset="1" stop-color="white"/>
</linearGradient>
<linearGradient id="paint4_linear_2_213" x1="71.8003" y1="81.1653" x2="116.154" y2="136.706" gradientUnits="userSpaceOnUse">
<stop stop-color="#5E5E5E" stop-opacity="0.18"/>
<stop offset="1" stop-color="white"/>
</linearGradient>
<linearGradient id="paint5_linear_2_213" x1="70.5568" y1="91.2545" x2="110.475" y2="141.241" gradientUnits="userSpaceOnUse">
<stop stop-color="#5E5E5E" stop-opacity="0.18"/>
<stop offset="1" stop-color="white"/>
</linearGradient>
<linearGradient id="paint6_linear_2_213" x1="69.3131" y1="101.343" x2="104.796" y2="145.776" gradientUnits="userSpaceOnUse">
<stop stop-color="#5E5E5E" stop-opacity="0.18"/>
<stop offset="1" stop-color="white"/>
</linearGradient>
<linearGradient id="paint7_linear_2_213" x1="68.0696" y1="111.433" x2="99.1169" y2="150.311" gradientUnits="userSpaceOnUse">
<stop stop-color="#5E5E5E" stop-opacity="0.18"/>
<stop offset="1" stop-color="white"/>
</linearGradient>
<linearGradient id="paint8_linear_2_213" x1="65.3887" y1="122.67" x2="92.0008" y2="155.994" gradientUnits="userSpaceOnUse">
<stop stop-color="#5E5E5E" stop-opacity="0.18"/>
<stop offset="1" stop-color="white"/>
</linearGradient>
<linearGradient id="paint9_linear_2_213" x1="64.1448" y1="132.759" x2="86.3215" y2="160.529" gradientUnits="userSpaceOnUse">
<stop stop-color="#5E5E5E" stop-opacity="0.18"/>
<stop offset="1" stop-color="white"/>
</linearGradient>
<linearGradient id="paint10_linear_2_213" x1="61.4643" y1="143.995" x2="79.2056" y2="166.212" gradientUnits="userSpaceOnUse">
<stop stop-color="#5E5E5E" stop-opacity="0.18"/>
<stop offset="1" stop-color="white"/>
</linearGradient>
<linearGradient id="paint11_linear_2_213" x1="60.2204" y1="154.085" x2="73.5265" y2="170.747" gradientUnits="userSpaceOnUse">
<stop stop-color="#5E5E5E" stop-opacity="0.18"/>
<stop offset="1" stop-color="white"/>
</linearGradient>
<linearGradient id="paint12_linear_2_213" x1="58.9769" y1="164.174" x2="67.8476" y2="175.282" gradientUnits="userSpaceOnUse">
<stop stop-color="#5E5E5E" stop-opacity="0.18"/>
<stop offset="1" stop-color="white"/>
</linearGradient>
</defs>
</svg>
