<svg width="143" height="72" viewBox="0 0 143 72" fill="none" xmlns="http://www.w3.org/2000/svg">
<g opacity="0.07">
<path d="M71.5 0C62.1105 0 52.8129 1.86234 44.1381 5.48067C35.4634 9.09901 27.5813 14.4025 20.9419 21.0883C14.3025 27.7741 9.03582 35.7113 5.44261 44.4468C1.8494 53.1822 0 62.5448 0 72H2.2C2.2 62.8357 3.9925 53.7612 7.47515 45.2946C10.9578 36.8279 16.0624 29.1349 22.4975 22.6548C28.9326 16.1747 36.5722 11.0344 44.98 7.52742C53.3879 4.02042 62.3994 2.21538 71.5 2.21538C80.6006 2.21538 89.6121 4.02042 98.02 7.52742C106.428 11.0344 114.067 16.1747 120.502 22.6548C126.938 29.1349 132.042 36.8279 135.525 45.2946C139.008 53.7612 140.8 62.8357 140.8 72H143C143 62.5448 141.151 53.1822 137.557 44.4468C133.964 35.7113 128.698 27.7741 122.058 21.0883C115.419 14.4025 107.537 9.09901 98.8619 5.48067C90.1871 1.86233 80.8895 0 71.5 0Z" fill="url(#paint0_linear_2_232)"/>
<path d="M71.5 8.86154C54.8709 8.86154 38.9229 15.5136 27.1644 27.3544C15.4059 39.1951 8.8 55.2546 8.8 72H11C11 55.8422 17.3741 40.3462 28.72 28.9209C40.066 17.4956 55.4544 11.0769 71.5 11.0769C87.5456 11.0769 102.934 17.4956 114.28 28.9209C125.626 40.3462 132 55.8422 132 72H134.2C134.2 55.2546 127.594 39.1951 115.836 27.3544C104.077 15.5136 88.1291 8.86154 71.5 8.86154Z" fill="url(#paint1_linear_2_232)"/>
<path d="M33.387 33.6204C43.4952 23.4415 57.2048 17.7231 71.5 17.7231C85.7952 17.7231 99.5048 23.4415 109.613 33.6204C119.721 43.7993 125.4 57.6049 125.4 72H123.2C123.2 58.1924 117.753 44.9504 108.057 35.1869C98.3618 25.4235 85.2117 19.9385 71.5 19.9385C57.7883 19.9385 44.6382 25.4235 34.9426 35.1869C25.247 44.9504 19.8 58.1924 19.8 72H17.6C17.6 57.6048 23.2787 43.7993 33.387 33.6204Z" fill="url(#paint2_linear_2_232)"/>
<path d="M71.5 26.5846C59.5387 26.5846 48.0674 31.3694 39.6095 39.8865C31.1516 48.4035 26.4 59.9551 26.4 72H28.6C28.6 60.5426 33.1198 49.5545 41.1651 41.453C49.2104 33.3514 60.1222 28.8 71.5 28.8C82.8778 28.8 93.7896 33.3514 101.835 41.453C109.88 49.5546 114.4 60.5426 114.4 72H116.6C116.6 59.9551 111.848 48.4035 103.391 39.8865C94.9326 31.3694 83.4613 26.5846 71.5 26.5846Z" fill="url(#paint3_linear_2_232)"/>
<path d="M45.832 46.1525C52.6396 39.2973 61.8726 35.4461 71.5 35.4461C81.1274 35.4461 90.3604 39.2973 97.168 46.1525C103.976 53.0077 107.8 62.3053 107.8 72H105.6C105.6 62.8929 102.007 54.1587 95.6123 47.719C89.2174 41.2793 80.5439 37.6615 71.5 37.6615C62.4561 37.6615 53.7826 41.2793 47.3877 47.719C40.9927 54.1587 37.4 62.8929 37.4 72H35.2C35.2 62.3053 39.0245 53.0077 45.832 46.1525Z" fill="url(#paint4_linear_2_232)"/>
<path d="M71.5 44.3077C64.2066 44.3077 57.2118 47.2253 52.0546 52.4186C46.8973 57.6119 44 64.6555 44 72H46.2C46.2 65.2431 48.8655 58.7629 53.6102 53.9851C58.3549 49.2072 64.79 46.5231 71.5 46.5231C78.21 46.5231 84.6451 49.2072 89.3898 53.9851C94.1345 58.7629 96.8 65.2431 96.8 72H99C99 64.6555 96.1027 57.6119 90.9454 52.4186C85.7882 47.2253 78.7935 44.3077 71.5 44.3077Z" fill="url(#paint5_linear_2_232)"/>
</g>
<defs>
<linearGradient id="paint0_linear_2_232" x1="71.5" y1="0" x2="71.5" y2="75.3231" gradientUnits="userSpaceOnUse">
<stop stop-color="#2D2D2D"/>
<stop offset="1" stop-color="white" stop-opacity="0"/>
</linearGradient>
<linearGradient id="paint1_linear_2_232" x1="71.5" y1="0" x2="71.5" y2="75.3231" gradientUnits="userSpaceOnUse">
<stop stop-color="#2D2D2D"/>
<stop offset="1" stop-color="white" stop-opacity="0"/>
</linearGradient>
<linearGradient id="paint2_linear_2_232" x1="71.5" y1="0" x2="71.5" y2="75.3231" gradientUnits="userSpaceOnUse">
<stop stop-color="#2D2D2D"/>
<stop offset="1" stop-color="white" stop-opacity="0"/>
</linearGradient>
<linearGradient id="paint3_linear_2_232" x1="71.5" y1="0" x2="71.5" y2="75.3231" gradientUnits="userSpaceOnUse">
<stop stop-color="#2D2D2D"/>
<stop offset="1" stop-color="white" stop-opacity="0"/>
</linearGradient>
<linearGradient id="paint4_linear_2_232" x1="71.5" y1="0" x2="71.5" y2="75.3231" gradientUnits="userSpaceOnUse">
<stop stop-color="#2D2D2D"/>
<stop offset="1" stop-color="white" stop-opacity="0"/>
</linearGradient>
<linearGradient id="paint5_linear_2_232" x1="71.5" y1="0" x2="71.5" y2="75.3231" gradientUnits="userSpaceOnUse">
<stop stop-color="#2D2D2D"/>
<stop offset="1" stop-color="white" stop-opacity="0"/>
</linearGradient>
</defs>
</svg>
